<?xml version="1.0" encoding="utf-8"?>
<!-- Generator: Adobe Illustrator 19.0.0, SVG Export Plug-In . SVG Version: 6.00 Build 0)  -->
<svg version="1.1" id="Layer_1" xmlns="http://www.w3.org/2000/svg" xmlns:xlink="http://www.w3.org/1999/xlink" x="0px" y="0px"
	 viewBox="950.7 158.8 1944.2 519.1" style="enable-background:new 950.7 158.8 1944.2 519.1;" xml:space="preserve">
<path d="M2880.1,395.1h-28.5v-91.2l-33.2,59.3h-19l-28.5-59.3v91.2h-33.2V238.4h33.2l38,84.5l42.8-84.5h28.5v156.8H2880.1z
	 M2695,395.1h-33.2l-9.5-27.6H2600l-9.5,27.6h-33.3l57-156.7h23.7L2695,395.1z M2647.5,341.4l-19-57l-19,57H2647.5z M2509.8,395.1
	h-104.5V238.4h104.5v27.1h-71.2v37.1h61.7v27.1h-61.7V368h71.2V395.1L2509.8,395.1z M2357.8,265.4h-38v129.7h-33.2V265.4h-42.8
	v-27.1h114V265.4z M2205.8,349c0,32.3-28.5,47-57,47.5c-28.5,0-47.5-6.7-57-20.9l19-19.5c9.5,8.5,19,13.3,38,13.3
	c19,0,28.5-6.7,28.5-19.5c0-11.9-9.5-17.1-19-19l-19-2.4c-28.5-3.8-42.8-18.5-42.8-44.1c0-14.2,4.7-25.6,14.2-34.6
	c9.5-8.5,23.7-12.8,38-12.8c23.7,0,38,6.2,52.3,18l-19,19.5c-9.5-7.2-19-10.9-33.2-10.9c-14.2,1-23.7,6.2-23.7,19.9
	c0,10.9,9.5,16.2,19,17.1l19,2.8C2186.9,306.3,2205.8,322.4,2205.8,349z M1963.7,320.5c0,42.8-38,77.4-80.7,77.4
	c-42.8,0-76-34.6-76-77.4c0-42.3,33.2-76.9,76-76.9C1925.7,243.6,1963.7,278.3,1963.7,320.5z M1882.9,177.1
	c-76,0-142.4,63.7-142.4,142.9l-90.2,128.7c-4.7-0.5-4.7-1-9.5-1c-19,0-38,5.7-57,15.2l-405.5-163.3
	c-10.9-48.5-54.1-84.5-105.4-84.5c-58.8,0-107.4,48.5-107.4,107.8c0,58.8,48.6,107.3,107.4,107.3c20.4,0,38.9-5.2,55.1-15.2
	l408.4,163.3c9.5,49.8,52.3,83.1,104.5,83.1s99.7-42.8,104.5-95.4L1883,465.4c80.7,0,147.2-64.5,147.2-144.4
	C2030.2,241.7,1963.7,177.1,1882.9,177.1z M1882.9,224.6c57,0,99.7,43.2,99.7,96.4c0,53.7-42.8,96.9-99.7,96.9
	c-52.3,0-94.9-43.2-94.9-96.9C1788,267.9,1830.8,224.6,1882.9,224.6L1882.9,224.6z M1072.9,243.6c30.4,0,57,16.6,70.3,41.8
	l-39.4-15.7c-31.8-11.4-67,4.3-79.7,35.6c-12.4,31.8,1.9,67.4,32.8,81.2l33.2,13.3c-5.2,1.4-10.9,1.9-17.1,1.9
	c-43.6,0-78.9-35.1-78.9-78.9C994,278.8,1029.2,243.6,1072.9,243.6z M1640.8,476.3c42.8,0,76,35.6,76,79.3c0,44.1-33.2,77.4-76,77.4
	c-33.2,0-57-14.2-71.2-40.4c14.2,7.2,23.7,11.9,38,16.6c33.2,14.2,66.5-4.7,80.7-35.1c9.5-29.4,0-69.8-33.2-82.6l-33.2-13.3
	C1626.6,477.3,1636.1,476.3,1640.8,476.3L1640.8,476.3z"/>
</svg>
